<svg width="1638" height="1329" viewBox="0 0 546 443" fill="none" xmlns="http://www.w3.org/2000/svg">
<rect x="0.5" y="0.5" width="359" height="359" stroke="white"/>
<rect x="186.5" y="83.5" width="359" height="359" stroke="white"/>
<path d="M31.7188 134H25.7188V88.5H31.7188V134ZM77.6875 134H71.6562L48.75 98.9375V134H42.7188V88.5H48.75L71.7188 123.719V88.5H77.6875V134ZM118.844 93.4375H104.219V134H98.25V93.4375H83.6562V88.5H118.844V93.4375ZM151.312 112.969H131.594V129.094H154.5V134H125.594V88.5H154.188V93.4375H131.594V108.062H151.312V112.969ZM178.656 115.594H167.969V134H161.938V88.5H177C182.125 88.5 186.062 89.6667 188.812 92C191.583 94.3333 192.969 97.7292 192.969 102.188C192.969 105.021 192.198 107.49 190.656 109.594C189.135 111.698 187.01 113.271 184.281 114.312L194.969 133.625V134H188.531L178.656 115.594ZM167.969 110.688H177.188C180.167 110.688 182.531 109.917 184.281 108.375C186.052 106.833 186.938 104.771 186.938 102.188C186.938 99.375 186.094 97.2188 184.406 95.7188C182.74 94.2188 180.323 93.4583 177.156 93.4375H167.969V110.688ZM226.531 122.125H207.469L203.188 134H197L214.375 88.5H219.625L237.031 134H230.875L226.531 122.125ZM209.281 117.188H224.75L217 95.9062L209.281 117.188ZM276.25 119.562C275.688 124.375 273.906 128.094 270.906 130.719C267.927 133.323 263.958 134.625 259 134.625C253.625 134.625 249.312 132.698 246.062 128.844C242.833 124.99 241.219 119.833 241.219 113.375V109C241.219 104.771 241.969 101.052 243.469 97.8438C244.99 94.6354 247.135 92.1771 249.906 90.4688C252.677 88.7396 255.885 87.875 259.531 87.875C264.365 87.875 268.24 89.2292 271.156 91.9375C274.073 94.625 275.771 98.3542 276.25 103.125H270.219C269.698 99.5 268.562 96.875 266.812 95.25C265.083 93.625 262.656 92.8125 259.531 92.8125C255.698 92.8125 252.688 94.2292 250.5 97.0625C248.333 99.8958 247.25 103.927 247.25 109.156V113.562C247.25 118.5 248.281 122.427 250.344 125.344C252.406 128.26 255.292 129.719 259 129.719C262.333 129.719 264.885 128.969 266.656 127.469C268.448 125.948 269.635 123.312 270.219 119.562H276.25ZM314.969 93.4375H300.344V134H294.375V93.4375H279.781V88.5H314.969V93.4375ZM328.156 134H322.156V88.5H328.156V134ZM374.156 112.719C374.156 117.177 373.406 121.073 371.906 124.406C370.406 127.719 368.281 130.25 365.531 132C362.781 133.75 359.573 134.625 355.906 134.625C352.323 134.625 349.146 133.75 346.375 132C343.604 130.229 341.448 127.719 339.906 124.469C338.385 121.198 337.604 117.417 337.562 113.125V109.844C337.562 105.469 338.323 101.604 339.844 98.25C341.365 94.8958 343.51 92.3333 346.281 90.5625C349.073 88.7708 352.26 87.875 355.844 87.875C359.49 87.875 362.698 88.7604 365.469 90.5312C368.26 92.2812 370.406 94.8333 371.906 98.1875C373.406 101.521 374.156 105.406 374.156 109.844V112.719ZM368.188 109.781C368.188 104.385 367.104 100.25 364.938 97.375C362.771 94.4792 359.74 93.0312 355.844 93.0312C352.052 93.0312 349.062 94.4792 346.875 97.375C344.708 100.25 343.594 104.25 343.531 109.375V112.719C343.531 117.948 344.625 122.062 346.812 125.062C349.021 128.042 352.052 129.531 355.906 129.531C359.781 129.531 362.781 128.125 364.906 125.312C367.031 122.479 368.125 118.427 368.188 113.156V109.781ZM418.125 134H412.094L389.188 98.9375V134H383.156V88.5H389.188L412.156 123.719V88.5H418.125V134ZM42.6406 225.484L43.9531 234.484L45.875 226.375L59.375 178.75H66.9688L80.1406 226.375L82.0156 234.625L83.4688 225.438L94.0625 178.75H103.109L86.5625 247H78.3594L64.2969 197.266L63.2188 192.062L62.1406 197.266L47.5625 247H39.3594L22.8594 178.75H31.8594L42.6406 225.484ZM151.719 215.453H122.141V239.641H156.5V247H113.141V178.75H156.031V186.156H122.141V208.094H151.719V215.453ZM167.703 247V178.75H190.016C197.422 178.75 202.984 180.281 206.703 183.344C210.453 186.406 212.328 190.938 212.328 196.938C212.328 200.125 211.422 202.953 209.609 205.422C207.797 207.859 205.328 209.75 202.203 211.094C205.891 212.125 208.797 214.094 210.922 217C213.078 219.875 214.156 223.312 214.156 227.312C214.156 233.438 212.172 238.25 208.203 241.75C204.234 245.25 198.625 247 191.375 247H167.703ZM176.703 215.078V239.641H191.562C195.75 239.641 199.047 238.562 201.453 236.406C203.891 234.219 205.109 231.219 205.109 227.406C205.109 219.188 200.641 215.078 191.703 215.078H176.703ZM176.703 207.859H190.297C194.234 207.859 197.375 206.875 199.719 204.906C202.094 202.938 203.281 200.266 203.281 196.891C203.281 193.141 202.188 190.422 200 188.734C197.812 187.016 194.484 186.156 190.016 186.156H176.703V207.859ZM262.719 254.078H219.781V247H262.719V254.078ZM66.5 328.453H36.9219V352.641H71.2812V360H27.9219V291.75H70.8125V299.156H36.9219V321.094H66.5V328.453ZM104.75 317.906L121.109 291.75H131.703L110.141 325.594L132.219 360H121.531L104.75 333.375L87.875 360H77.2344L99.3594 325.594L77.75 291.75H88.2969L104.75 317.906ZM195.125 360H186.078V328.453H151.672V360H142.672V291.75H151.672V321.094H186.078V291.75H195.125V360ZM220.766 360H211.766V291.75H220.766V360ZM237.266 360V291.75H259.578C266.984 291.75 272.547 293.281 276.266 296.344C280.016 299.406 281.891 303.938 281.891 309.938C281.891 313.125 280.984 315.953 279.172 318.422C277.359 320.859 274.891 322.75 271.766 324.094C275.453 325.125 278.359 327.094 280.484 330C282.641 332.875 283.719 336.312 283.719 340.312C283.719 346.438 281.734 351.25 277.766 354.75C273.797 358.25 268.188 360 260.938 360H237.266ZM246.266 328.078V352.641H261.125C265.312 352.641 268.609 351.562 271.016 349.406C273.453 347.219 274.672 344.219 274.672 340.406C274.672 332.188 270.203 328.078 261.266 328.078H246.266ZM246.266 320.859H259.859C263.797 320.859 266.938 319.875 269.281 317.906C271.656 315.938 272.844 313.266 272.844 309.891C272.844 306.141 271.75 303.422 269.562 301.734C267.375 300.016 264.047 299.156 259.578 299.156H246.266V320.859ZM306.734 360H297.734V291.75H306.734V360ZM368.984 299.156H347.047V360H338.094V299.156H316.203V291.75H368.984V299.156ZM388.766 360H379.766V291.75H388.766V360ZM457.766 328.078C457.766 334.766 456.641 340.609 454.391 345.609C452.141 350.578 448.953 354.375 444.828 357C440.703 359.625 435.891 360.938 430.391 360.938C425.016 360.938 420.25 359.625 416.094 357C411.938 354.344 408.703 350.578 406.391 345.703C404.109 340.797 402.938 335.125 402.875 328.688V323.766C402.875 317.203 404.016 311.406 406.297 306.375C408.578 301.344 411.797 297.5 415.953 294.844C420.141 292.156 424.922 290.812 430.297 290.812C435.766 290.812 440.578 292.141 444.734 294.797C448.922 297.422 452.141 301.25 454.391 306.281C456.641 311.281 457.766 317.109 457.766 323.766V328.078ZM448.812 323.672C448.812 315.578 447.188 309.375 443.938 305.062C440.688 300.719 436.141 298.547 430.297 298.547C424.609 298.547 420.125 300.719 416.844 305.062C413.594 309.375 411.922 315.375 411.828 323.062V328.078C411.828 335.922 413.469 342.094 416.75 346.594C420.062 351.062 424.609 353.297 430.391 353.297C436.203 353.297 440.703 351.188 443.891 346.969C447.078 342.719 448.719 336.641 448.812 328.734V323.672ZM523.719 360H514.672L480.312 307.406V360H471.266V291.75H480.312L514.766 344.578V291.75H523.719V360Z" fill="white"/>
</svg>
